<svg viewBox="153 8 52 15" width="100%" height="10px" xmlns="http://www.w3.org/2000/svg">
  <path d="M159.22 23.16C157.02 23.16 155.26 22.5667 153.94 21.38L154.58 20.12C155.273 20.7067 155.98 21.1267 156.7 21.38C157.433 21.6333 158.28 21.76 159.24 21.76C160.373 21.76 161.247 21.54 161.86 21.1C162.473 20.66 162.78 20.04 162.78 19.24C162.78 18.7733 162.633 18.3933 162.34 18.1C162.047 17.8067 161.66 17.5733 161.18 17.4C160.7 17.2267 160.053 17.0467 159.24 16.86C158.147 16.6067 157.247 16.34 156.54 16.06C155.847 15.78 155.28 15.38 154.84 14.86C154.413 14.34 154.2 13.66 154.2 12.82C154.2 12.02 154.407 11.3133 154.82 10.7C155.247 10.0733 155.847 9.59333 156.62 9.26C157.407 8.91333 158.313 8.74 159.34 8.74C160.313 8.74 161.22 8.89333 162.06 9.2C162.913 9.50667 163.633 9.94667 164.22 10.52L163.6 11.78C162.933 11.2067 162.253 10.7933 161.56 10.54C160.88 10.2733 160.14 10.14 159.34 10.14C158.247 10.14 157.387 10.3733 156.76 10.84C156.147 11.2933 155.84 11.9333 155.84 12.76C155.84 13.4667 156.113 14 156.66 14.36C157.207 14.72 158.033 15.0267 159.14 15.28C160.353 15.5733 161.307 15.8467 162 16.1C162.693 16.34 163.267 16.7067 163.72 17.2C164.187 17.6933 164.42 18.3533 164.42 19.18C164.42 19.98 164.207 20.68 163.78 21.28C163.367 21.88 162.767 22.3467 161.98 22.68C161.193 23 160.273 23.16 159.22 23.16ZM175.004 18.38H167.884C167.937 19.5133 168.244 20.3733 168.804 20.96C169.364 21.5333 170.157 21.82 171.184 21.82C172.317 21.82 173.357 21.4333 174.304 20.66L174.844 21.84C174.417 22.24 173.87 22.56 173.204 22.8C172.537 23.0267 171.857 23.14 171.164 23.14C169.644 23.14 168.444 22.6933 167.564 21.8C166.697 20.9067 166.264 19.6733 166.264 18.1C166.264 17.1 166.457 16.22 166.844 15.46C167.23 14.6867 167.77 14.0867 168.464 13.66C169.17 13.2333 169.97 13.02 170.864 13.02C172.157 13.02 173.17 13.4467 173.904 14.3C174.637 15.14 175.004 16.3 175.004 17.78V18.38ZM170.884 14.28C170.03 14.28 169.344 14.5467 168.824 15.08C168.317 15.6133 168.017 16.3667 167.924 17.34H173.584C173.557 16.3533 173.31 15.6 172.844 15.08C172.377 14.5467 171.724 14.28 170.884 14.28ZM177.391 23V8.9H179.011V23H177.391ZM182.039 23V8.9H183.659V23H182.039ZM194.848 18.38H187.728C187.781 19.5133 188.088 20.3733 188.648 20.96C189.208 21.5333 190.001 21.82 191.028 21.82C192.161 21.82 193.201 21.4333 194.148 20.66L194.688 21.84C194.261 22.24 193.714 22.56 193.048 22.8C192.381 23.0267 191.701 23.14 191.008 23.14C189.488 23.14 188.288 22.6933 187.408 21.8C186.541 20.9067 186.108 19.6733 186.108 18.1C186.108 17.1 186.301 16.22 186.688 15.46C187.074 14.6867 187.614 14.0867 188.308 13.66C189.014 13.2333 189.814 13.02 190.708 13.02C192.001 13.02 193.014 13.4467 193.748 14.3C194.481 15.14 194.848 16.3 194.848 17.78V18.38ZM190.728 14.28C189.874 14.28 189.188 14.5467 188.668 15.08C188.161 15.6133 187.861 16.3667 187.768 17.34H193.428C193.401 16.3533 193.154 15.6 192.688 15.08C192.221 14.5467 191.568 14.28 190.728 14.28ZM202.754 14.42L201.694 14.52C200.694 14.6133 199.968 14.9267 199.514 15.46C199.074 15.9933 198.854 16.6533 198.854 17.44V23H197.234V13.26H198.814V14.96C199.361 13.8267 200.434 13.1933 202.034 13.06L202.614 13.02L202.754 14.42Z" fill="var(--NN900, #2E3137)"></path>
</svg>
